#Comment line ignore any data following # character 
#Hierarchical Translation and Rotation (.htr) file 
[Header]	
#Header keywords are followed by a single value 
FileType HTR		#Single word string
DataType HTRS		#Translation followed by rotation and scale data
FileVersion 1		#integer
NumSegments 84		#integer
NumFrames 2		#integer
DataFrameRate 30		#integer, data frame rate in this file
EulerRotationOrder ZYX
CalibrationUnits mm
RotationUnits Degrees
GlobalAxisofGravity Y
BoneLengthAxis Y
ScaleFactor 1.00
[SegmentNames&Hierarchy]
#CHILD	PARENT
MASTER GLOBAL
root MASTER
chest root
L_mid_tent01 root
R_mid_tent01 root
spine01 root
Bip01_Neck chest
L_humerus chest
R_humerus chest
weapon_bone chest
Bip01_Head Bip01_Neck
eye_left_bone Bip01_Head
eye_right_bone Bip01_Head
L_forearm L_humerus
L_front_hand L_forearm
L_weapon_bone L_forearm
L_front_hand01_01 L_front_hand
L_front_hand02_01 L_front_hand
L_front_hand03_01 L_front_hand
L_front_hand01_02 L_front_hand01_01
L_front_hand02_02 L_front_hand02_01
L_front_hand03_02 L_front_hand03_01
R_forearm R_humerus
R_front_hand R_forearm
R_weapon_bone R_forearm
R_front_hand01_01 R_front_hand
R_front_hand02_01 R_front_hand
R_front_hand03_01 R_front_hand
R_front_hand01_02 R_front_hand01_01
R_front_hand02_02 R_front_hand02_01
R_front_hand03_02 R_front_hand03_01
null_rope01_connect L_mid_tent01
Rope1_Seg01 null_rope01_connect
Rope1_Seg02 Rope1_Seg01
Rope1_Seg03 Rope1_Seg02
Rope1_Seg04 Rope1_Seg03
Rope1_Seg05 Rope1_Seg04
Rope1_Seg06 Rope1_Seg05
Rope1_Seg07 Rope1_Seg06
Rope1_Seg09 Rope1_Seg07
L_mid_hand01 Rope1_Seg09
L_mid_hand02 Rope1_Seg09
L_mid_hand03 Rope1_Seg09
null_rope02_connect R_mid_tent01
Rope2_Seg01 null_rope02_connect
Rope2_Seg02 Rope2_Seg01
Rope2_Seg03 Rope2_Seg02
Rope2_Seg04 Rope2_Seg03
Rope2_Seg05 Rope2_Seg04
Rope2_Seg06 Rope2_Seg05
Rope2_Seg07 Rope2_Seg06
Rope2_Seg09 Rope2_Seg07
R_mid_hand01 Rope2_Seg09
R_mid_hand02 Rope2_Seg09
R_mid_hand03 Rope2_Seg09
spine02 spine01
spine03 spine02
pelvis spine03
null_rope03_connect pelvis
null_rope04_connect pelvis
Rope3_Seg01 null_rope03_connect
Rope3_Seg02 Rope3_Seg01
Rope3_Seg03 Rope3_Seg02
Rope3_Seg04 Rope3_Seg03
Rope3_Seg05 Rope3_Seg04
Rope3_Seg06 Rope3_Seg05
Rope3_Seg07 Rope3_Seg06
Rope3_Seg08 Rope3_Seg07
Rope3_Seg09 Rope3_Seg08
R_rear_hand01 Rope3_Seg09
R_rear_hand02 Rope3_Seg09
R_rear_hand03 Rope3_Seg09
Rope4_Seg01 null_rope04_connect
Rope4_Seg02 Rope4_Seg01
Rope4_Seg03 Rope4_Seg02
Rope4_Seg04 Rope4_Seg03
Rope4_Seg05 Rope4_Seg04
Rope4_Seg06 Rope4_Seg05
Rope4_Seg07 Rope4_Seg06
Rope4_Seg08 Rope4_Seg07
Rope4_Seg09 Rope4_Seg08
L_rear_hand01 Rope4_Seg09
L_rear_hand02 Rope4_Seg09
L_rear_hand03 Rope4_Seg09
[BasePosition]
#SegmentName Tx, Ty, Tz, Rx, Ry, Rz, BoneLength
MASTER 0.000000 0.000000 0.000000 -90.000000 0.000000 0.000000 10.000000 
root 0.000000 0.000000 0.000000 0.000000 0.000000 0.000000 10.000000 
chest 0.000000 0.000000 0.000000 0.000000 0.000000 0.000000 10.000000 
L_mid_tent01 0.000000 0.000000 0.000000 0.000000 0.000000 0.000000 10.000000 
R_mid_tent01 0.000000 0.000000 0.000000 0.000000 0.000000 0.000000 10.000000 
spine01 0.000000 0.000000 0.000000 0.000000 0.000000 0.000000 10.000000 
Bip01_Neck 0.000000 0.000000 0.000000 0.000000 0.000000 0.000000 10.000000 
L_humerus 0.000000 0.000000 0.000000 0.000000 0.000000 0.000000 10.000000 
R_humerus 0.000000 0.000000 0.000000 0.000000 0.000000 0.000000 10.000000 
weapon_bone 0.000000 0.000000 0.000000 0.000000 0.000000 0.000000 10.000000 
Bip01_Head 0.000000 0.000000 0.000000 0.000000 0.000000 0.000000 10.000000 
eye_left_bone 0.000000 0.000000 0.000000 0.000000 0.000000 0.000000 10.000000 
eye_right_bone 0.000000 0.000000 0.000000 0.000000 0.000000 0.000000 10.000000 
L_forearm 0.000000 0.000000 0.000000 0.000000 0.000000 0.000000 10.000000 
L_front_hand 0.000000 0.000000 0.000000 0.000000 0.000000 0.000000 10.000000 
L_weapon_bone 0.000000 0.000000 0.000000 0.000000 0.000000 0.000000 10.000000 
L_front_hand01_01 0.000000 0.000000 0.000000 0.000000 0.000000 0.000000 10.000000 
L_front_hand02_01 0.000000 0.000000 0.000000 0.000000 0.000000 0.000000 10.000000 
L_front_hand03_01 0.000000 0.000000 0.000000 0.000000 0.000000 0.000000 10.000000 
L_front_hand01_02 0.000000 0.000000 0.000000 0.000000 0.000000 0.000000 10.000000 
L_front_hand02_02 0.000000 0.000000 0.000000 0.000000 0.000000 0.000000 10.000000 
L_front_hand03_02 0.000000 0.000000 0.000000 0.000000 0.000000 0.000000 10.000000 
R_forearm 0.000000 0.000000 0.000000 0.000000 0.000000 0.000000 10.000000 
R_front_hand 0.000000 0.000000 0.000000 0.000000 0.000000 0.000000 10.000000 
R_weapon_bone 0.000000 0.000000 0.000000 0.000000 0.000000 0.000000 10.000000 
R_front_hand01_01 0.000000 0.000000 0.000000 0.000000 0.000000 0.000000 10.000000 
R_front_hand02_01 0.000000 0.000000 0.000000 0.000000 0.000000 0.000000 10.000000 
R_front_hand03_01 0.000000 0.000000 0.000000 0.000000 0.000000 0.000000 10.000000 
R_front_hand01_02 0.000000 0.000000 0.000000 0.000000 0.000000 0.000000 10.000000 
R_front_hand02_02 0.000000 0.000000 0.000000 0.000000 0.000000 0.000000 10.000000 
R_front_hand03_02 0.000000 0.000000 0.000000 0.000000 0.000000 0.000000 10.000000 
null_rope01_connect 0.000000 0.000000 0.000000 0.000000 0.000000 0.000000 10.000000 
Rope1_Seg01 0.000000 0.000000 0.000000 0.000000 0.000000 0.000000 10.000000 
Rope1_Seg02 0.000000 0.000000 0.000000 0.000000 0.000000 0.000000 10.000000 
Rope1_Seg03 0.000000 0.000000 0.000000 0.000000 0.000000 0.000000 10.000000 
Rope1_Seg04 0.000000 0.000000 0.000000 0.000000 0.000000 0.000000 10.000000 
Rope1_Seg05 0.000000 0.000000 0.000000 0.000000 0.000000 0.000000 10.000000 
Rope1_Seg06 0.000000 0.000000 0.000000 0.000000 0.000000 0.000000 10.000000 
Rope1_Seg07 0.000000 0.000000 0.000000 0.000000 0.000000 0.000000 10.000000 
Rope1_Seg09 0.000000 0.000000 0.000000 0.000000 0.000000 0.000000 10.000000 
L_mid_hand01 0.000000 0.000000 0.000000 0.000000 0.000000 0.000000 10.000000 
L_mid_hand02 0.000000 0.000000 0.000000 0.000000 0.000000 0.000000 10.000000 
L_mid_hand03 0.000000 0.000000 0.000000 0.000000 0.000000 0.000000 10.000000 
null_rope02_connect 0.000000 0.000000 0.000000 0.000000 0.000000 0.000000 10.000000 
Rope2_Seg01 0.000000 0.000000 0.000000 0.000000 0.000000 0.000000 10.000000 
Rope2_Seg02 0.000000 0.000000 0.000000 0.000000 0.000000 0.000000 10.000000 
Rope2_Seg03 0.000000 0.000000 0.000000 0.000000 0.000000 0.000000 10.000000 
Rope2_Seg04 0.000000 0.000000 0.000000 0.000000 0.000000 0.000000 10.000000 
Rope2_Seg05 0.000000 0.000000 0.000000 0.000000 0.000000 0.000000 10.000000 
Rope2_Seg06 0.000000 0.000000 0.000000 0.000000 0.000000 0.000000 10.000000 
Rope2_Seg07 0.000000 0.000000 0.000000 0.000000 0.000000 0.000000 10.000000 
Rope2_Seg09 0.000000 0.000000 0.000000 0.000000 0.000000 0.000000 10.000000 
R_mid_hand01 0.000000 0.000000 0.000000 0.000000 0.000000 0.000000 10.000000 
R_mid_hand02 0.000000 0.000000 0.000000 0.000000 0.000000 0.000000 10.000000 
R_mid_hand03 0.000000 0.000000 0.000000 0.000000 0.000000 0.000000 10.000000 
spine02 0.000000 0.000000 0.000000 0.000000 0.000000 0.000000 10.000000 
spine03 0.000000 0.000000 0.000000 0.000000 0.000000 0.000000 10.000000 
pelvis 0.000000 0.000000 0.000000 0.000000 0.000000 0.000000 10.000000 
null_rope03_connect 0.000000 0.000000 0.000000 0.000000 0.000000 0.000000 10.000000 
null_rope04_connect 0.000000 0.000000 0.000000 0.000000 0.000000 0.000000 10.000000 
Rope3_Seg01 0.000000 0.000000 0.000000 0.000000 0.000000 0.000000 10.000000 
Rope3_Seg02 0.000000 0.000000 0.000000 0.000000 0.000000 0.000000 10.000000 
Rope3_Seg03 0.000000 0.000000 0.000000 0.000000 0.000000 0.000000 10.000000 
Rope3_Seg04 0.000000 0.000000 0.000000 0.000000 0.000000 0.000000 10.000000 
Rope3_Seg05 0.000000 0.000000 0.000000 0.000000 0.000000 0.000000 10.000000 
Rope3_Seg06 0.000000 0.000000 0.000000 0.000000 0.000000 0.000000 10.000000 
Rope3_Seg07 0.000000 0.000000 0.000000 0.000000 0.000000 0.000000 10.000000 
Rope3_Seg08 0.000000 0.000000 0.000000 0.000000 0.000000 0.000000 10.000000 
Rope3_Seg09 0.000000 0.000000 0.000000 0.000000 0.000000 0.000000 10.000000 
R_rear_hand01 0.000000 0.000000 0.000000 0.000000 0.000000 0.000000 10.000000 
R_rear_hand02 0.000000 0.000000 0.000000 0.000000 0.000000 0.000000 10.000000 
R_rear_hand03 0.000000 0.000000 0.000000 0.000000 0.000000 0.000000 10.000000 
Rope4_Seg01 0.000000 0.000000 0.000000 0.000000 0.000000 0.000000 10.000000 
Rope4_Seg02 0.000000 0.000000 0.000000 0.000000 0.000000 0.000000 10.000000 
Rope4_Seg03 0.000000 0.000000 0.000000 0.000000 0.000000 0.000000 10.000000 
Rope4_Seg04 0.000000 0.000000 0.000000 0.000000 0.000000 0.000000 10.000000 
Rope4_Seg05 0.000000 0.000000 0.000000 0.000000 0.000000 0.000000 10.000000 
Rope4_Seg06 0.000000 0.000000 0.000000 0.000000 0.000000 0.000000 10.000000 
Rope4_Seg07 0.000000 0.000000 0.000000 0.000000 0.000000 0.000000 10.000000 
Rope4_Seg08 0.000000 0.000000 0.000000 0.000000 0.000000 0.000000 10.000000 
Rope4_Seg09 0.000000 0.000000 0.000000 0.000000 0.000000 0.000000 10.000000 
L_rear_hand01 0.000000 0.000000 0.000000 0.000000 0.000000 0.000000 10.000000 
L_rear_hand02 0.000000 0.000000 0.000000 0.000000 0.000000 0.000000 10.000000 
L_rear_hand03 0.000000 0.000000 0.000000 0.000000 0.000000 0.000000 10.000000 
#Beginning of Data. Separated by tabs
#Fr	Tx	Ty	Tz	Rx	Ry	Rz	SF
[MASTER]
58 0.000000 0.000000 0.000000 0.001660 0.001660 0.001660 0.000000
59 0.000000 0.000000 0.000000 0.001660 0.001660 0.001660 0.000000
[root]
58 -84.974396 -62.822124 1469.064453 -86.061668 -5.338385 -90.219452 1472.860352
59 -88.799690 -62.822124 1475.147583 -86.021317 -4.941024 -90.005875 1479.152588
[chest]
58 -84.512650 -34.090519 0.000000 -0.307809 -0.743092 156.385437 91.129311
59 -84.512650 -34.090519 0.000000 -0.307809 -0.743092 156.385437 91.129311
[L_mid_tent01]
58 23.228750 24.509907 -223.761200 -13.922880 18.505281 -13.905633 226.294907
59 23.228750 24.509907 -223.761200 -13.822734 18.970764 -12.593953 226.294907
[R_mid_tent01]
58 23.228794 24.509907 226.238495 -159.213303 -14.307963 -25.628649 228.744751
59 23.228794 24.509907 226.238495 -159.555618 -10.756994 -24.049849 228.744751
[spine01]
58 -0.361383 -0.195265 0.000000 0.001815 0.001488 11.320962 0.410763
59 -0.361383 -0.195265 0.000000 0.001815 0.001488 11.320962 0.410763
[Bip01_Neck]
58 165.484543 71.581718 0.000119 175.896118 1.177290 24.871183 180.302734
59 165.484543 71.581718 0.000119 175.896118 1.177290 24.871183 180.302734
[L_humerus]
58 -13.983130 -135.272980 -120.471481 149.628754 9.923236 -156.213867 181.680161
59 -13.983130 -135.272980 -120.471481 149.628754 9.923236 -156.213867 181.680161
[R_humerus]
58 -13.983309 -135.273102 125.287651 -156.699188 -11.743879 -154.898056 184.909012
59 -13.983309 -135.273102 125.287651 -156.699188 -11.743878 -154.898071 184.909012
[weapon_bone]
58 235.964890 -300.705902 0.000000 0.000000 -89.951546 -128.212341 382.234833
59 235.964890 -300.705902 0.000000 0.000000 -89.951546 -128.212341 382.234833
[Bip01_Head]
58 179.663727 77.988899 -1.800946 5.008024 8.050434 -40.165955 195.868759
59 179.663727 77.988899 -1.800947 4.561050 7.219793 -40.229839 195.868759
[eye_left_bone]
58 -24.626970 125.451866 -64.772606 0.000000 -90.000000 -99.840431 143.318359
59 -24.626970 125.451866 -64.772606 0.000000 -90.000000 -99.840431 143.318359
[eye_right_bone]
58 -24.626970 125.451866 64.327362 0.000000 -89.965736 80.156380 143.117676
59 -24.626970 125.451866 64.327362 0.000000 -89.965736 80.156380 143.117676
[L_forearm]
58 322.776093 0.000000 -0.000119 0.000842 -0.002191 -132.067245 322.776093
59 322.776093 0.000000 -0.000119 0.000842 -0.002191 -132.067245 322.776093
[L_front_hand]
58 241.149185 -0.042021 -3.300071 102.191505 -1.504264 -39.930756 241.171753
59 241.149185 -0.042021 -3.300071 102.191505 -1.504264 -39.930756 241.171753
[L_weapon_bone]
58 156.183838 0.000000 0.000000 0.000014 0.000007 0.000001 156.183838
59 156.183838 0.000000 0.000000 0.000014 0.000007 0.000001 156.183838
[L_front_hand01_01]
58 86.095154 20.947098 -0.655860 -0.023101 -0.600663 40.183533 88.609184
59 86.095154 20.947098 -0.655860 -0.023101 -0.600663 40.183533 88.609184
[L_front_hand02_01]
58 86.935165 -11.437475 24.513514 123.803017 -35.583660 -21.633909 91.046425
59 86.935165 -11.437475 24.513514 123.803017 -35.583660 -21.633909 91.046425
[L_front_hand03_01]
58 86.637497 -14.123976 -20.424902 -124.931145 34.056267 -24.031849 90.126129
59 86.637497 -14.123976 -20.424902 -124.931145 34.056267 -24.031849 90.126129
[L_front_hand01_02]
58 71.020905 -0.000179 0.000030 0.000334 -0.002323 -106.379684 71.020905
59 71.020905 -0.000179 0.000030 0.000334 -0.002323 -106.379684 71.020905
[L_front_hand02_02]
58 71.020927 -0.000119 0.000060 0.000334 -0.002323 -106.379684 71.020927
59 71.020927 -0.000119 0.000060 0.000334 -0.002323 -106.379684 71.020927
[L_front_hand03_02]
58 71.020905 -0.000060 0.000060 0.000334 -0.002323 -106.379684 71.020905
59 71.020905 -0.000060 0.000060 0.000334 -0.002323 -106.379684 71.020905
[R_forearm]
58 322.776428 -0.000060 0.000030 0.244684 0.084396 -126.001297 322.776428
59 322.776428 -0.000060 0.000030 0.244684 0.084396 -126.001297 322.776428
[R_front_hand]
58 238.847015 -0.006795 2.210259 34.135384 0.237227 -48.452343 238.857239
59 238.847015 -0.006795 2.210259 34.135387 0.237228 -48.452351 238.857239
[R_weapon_bone]
58 155.664093 0.002503 -0.000030 0.003487 0.001180 -90.988930 155.664078
59 155.664093 0.002503 -0.000030 0.003487 0.001180 -90.988930 155.664078
[R_front_hand01_01]
58 87.624611 14.231146 22.918642 -126.135849 -39.879025 25.544359 91.683487
59 87.624611 14.231146 22.918642 -124.528847 -37.027763 22.962912 91.683487
[R_front_hand02_01]
58 89.356956 14.367283 -19.491137 127.355316 38.540722 28.344770 92.579636
59 89.356956 14.367283 -19.491137 125.778549 35.732677 25.733765 92.579636
[R_front_hand03_01]
58 87.286232 -22.307278 -0.143439 -0.072780 -0.447400 -45.664215 90.091743
59 87.286232 -22.307278 -0.143439 -0.097389 -0.443918 -42.171066 90.091743
[R_front_hand01_02]
58 71.020905 0.000060 0.000119 0.002338 -0.000204 99.954910 71.020905
59 71.020905 0.000060 0.000119 0.002323 -0.000334 106.381615 71.020905
[R_front_hand02_02]
58 71.020844 -0.000030 -0.000119 0.002338 -0.000204 99.954910 71.020836
59 71.020844 -0.000030 -0.000119 0.002323 -0.000334 106.381615 71.020836
[R_front_hand03_02]
58 71.020905 0.000000 0.000030 0.002338 -0.000204 99.954910 71.020905
59 71.020905 0.000000 0.000030 0.002323 -0.000334 106.381615 71.020905
[null_rope01_connect]
58 328.732483 0.000000 -0.000238 -99.619034 -68.096916 -154.154816 328.732483
59 328.732483 0.000000 -0.000238 -100.621948 -68.037201 -154.912216 328.732483
[Rope1_Seg01]
58 0.000000 0.000000 0.000000 58.172989 -29.395075 -128.933350 0.000000
59 0.000000 0.000000 0.000000 69.032761 -25.513117 -138.193405 0.000000
[Rope1_Seg02]
58 139.999863 -0.000179 0.000000 -18.840023 25.107861 11.173108 139.999863
59 139.999863 -0.000179 0.000000 -18.453817 22.946144 9.000627 139.999863
[Rope1_Seg03]
58 139.999924 0.000060 -0.000060 -16.922716 25.073534 36.132767 139.999924
59 139.999924 0.000060 -0.000060 -21.201002 27.278996 30.913960 139.999924
[Rope1_Seg04]
58 139.999924 -0.000060 -0.000119 -2.425277 4.980457 3.877785 139.999924
59 139.999924 -0.000060 -0.000119 -5.480267 6.018216 12.586915 139.999924
[Rope1_Seg05]
58 139.999832 0.000119 -0.000060 16.549658 4.188047 -34.854355 139.999832
59 139.999832 0.000119 -0.000060 7.847013 2.742185 -21.530479 139.999832
[Rope1_Seg06]
58 139.999954 0.000119 -0.000060 20.785522 -3.119207 -16.933157 139.999954
59 139.999954 0.000119 -0.000060 8.211048 -0.248790 -11.539205 139.999954
[Rope1_Seg07]
58 139.999985 0.000060 0.000000 8.978595 -2.764340 -5.124637 139.999985
59 139.999985 0.000060 0.000000 3.583909 -0.381474 -4.053749 139.999985
[Rope1_Seg09]
58 121.602913 0.000119 -0.000089 -89.793175 -1.359789 0.847147 121.602913
59 121.602913 0.000119 -0.000089 -89.793175 -1.359789 0.847147 121.602913
[L_mid_hand01]
58 103.859421 1.038730 8.195221 106.855484 -31.239275 -9.461397 104.187431
59 103.859421 1.038730 8.195221 106.855484 -31.239275 -9.461397 104.187431
[L_mid_hand02]
58 105.572853 -4.139662 -10.864139 -142.331345 25.752670 -28.774628 106.211075
59 105.572853 -4.139662 -10.864139 -142.331345 25.752670 -28.774628 106.211075
[L_mid_hand03]
58 104.641464 17.579376 -3.913581 -16.122810 9.734291 34.223598 106.179977
59 104.641464 17.579376 -3.913581 -16.122810 9.734291 34.223598 106.179977
[null_rope02_connect]
58 328.732849 0.000179 -0.000119 -122.799141 62.886906 -61.909069 328.732849
59 328.732849 0.000179 -0.000119 -130.920807 64.313499 -68.590820 328.732849
[Rope2_Seg01]
58 0.000116 0.000113 -0.000008 87.977783 -20.809053 -109.964256 0.000162
59 0.000116 0.000113 -0.000005 91.239784 -24.165340 -118.408340 0.000162
[Rope2_Seg02]
58 139.999741 -0.000060 -0.000119 -3.174553 18.236519 0.373973 139.999756
59 139.999741 -0.000060 -0.000119 -2.106973 20.371790 -2.643619 139.999756
[Rope2_Seg03]
58 140.000107 0.000030 0.000000 -7.440825 18.476250 1.631976 140.000107
59 140.000107 0.000030 0.000000 -5.573829 21.422626 -2.716338 140.000107
[Rope2_Seg04]
58 139.999802 0.000000 -0.000060 -10.656890 13.253910 3.061271 139.999802
59 139.999802 0.000000 -0.000060 -8.930307 15.763356 -0.691147 139.999802
[Rope2_Seg05]
58 139.999985 -0.000060 0.000119 5.435261 -4.596585 -2.481366 139.999985
59 139.999985 -0.000060 0.000119 -0.578670 -2.207459 1.368171 139.999985
[Rope2_Seg06]
58 139.999893 -0.000030 -0.000119 11.474765 -15.302035 -6.019238 139.999893
59 139.999893 -0.000030 -0.000119 3.312658 -10.135015 1.192966 139.999893
[Rope2_Seg07]
58 139.999893 0.000060 -0.000060 3.419539 -8.444392 -1.615285 139.999893
59 139.999893 0.000060 -0.000060 0.536041 -4.099738 1.110806 139.999893
[Rope2_Seg09]
58 121.338966 0.000089 -0.000060 33.793236 -1.359788 -0.847141 121.338966
59 121.338966 0.000089 -0.000060 33.793236 -1.359788 -0.847141 121.338966
[R_mid_hand01]
58 104.680779 11.144459 -10.335981 -41.523792 25.424656 28.595957 105.778534
59 104.680779 11.144459 -10.335981 -41.523792 25.424656 28.595957 105.778534
[R_mid_hand02]
58 104.070427 2.443552 8.231699 72.847389 -32.746803 10.013901 104.424065
59 104.070427 2.443552 8.231699 72.847389 -32.746803 10.013901 104.424065
[R_mid_hand03]
58 106.028137 -11.221827 -5.996406 -167.901306 10.259192 -37.009720 106.788818
59 106.028137 -11.221827 -5.996406 -167.901306 10.259192 -37.009720 106.788818
[spine02]
58 129.756927 0.001550 0.000119 0.001147 -1.797837 -7.854275 129.756927
59 129.756927 0.001550 0.000119 0.001147 -1.797837 -7.854275 129.756927
[spine03]
58 79.115631 0.000000 -0.000119 1.459971 -2.848092 23.765963 79.115631
59 79.115631 0.000000 -0.000119 1.459971 -2.848092 23.765963 79.115631
[pelvis]
58 169.435242 0.051022 0.000000 -0.000005 0.000003 -4.322055 169.435257
59 169.435242 0.051022 0.000000 -0.000005 0.000003 -4.322055 169.435257
[null_rope03_connect]
58 -1.257226 -2.466202 137.391083 33.325912 -82.448311 39.170033 137.418976
59 -1.257226 -2.466202 137.391083 34.116451 -82.297470 37.970135 137.418976
[null_rope04_connect]
58 -1.259640 -2.480268 -137.844437 33.325912 -82.448311 39.170033 137.872513
59 -1.259640 -2.480268 -137.844437 34.116451 -82.297470 37.970135 137.872513
[Rope3_Seg01]
58 0.000000 0.000000 0.000000 -130.539001 0.600265 -73.135529 0.000000
59 0.000000 0.000000 0.000000 -130.470901 -1.047137 -83.135162 0.000000
[Rope3_Seg02]
58 139.999924 -0.000119 0.000060 0.185357 -1.547479 0.681750 139.999924
59 139.999924 -0.000119 0.000060 -0.093418 -3.703790 -0.579199 139.999924
[Rope3_Seg03]
58 139.999924 -0.000119 0.000119 0.207027 -1.780281 0.789882 139.999924
59 139.999924 -0.000119 0.000119 0.031496 -4.237611 -0.672563 139.999924
[Rope3_Seg04]
58 139.999924 0.000119 0.000000 0.230208 -2.863700 0.752873 139.999924
59 139.999924 0.000119 0.000000 0.251761 -6.027613 -1.175435 139.999924
[Rope3_Seg05]
58 139.999924 -0.000238 0.000060 0.996490 -7.457122 0.021046 139.999924
59 139.999924 -0.000238 0.000060 1.522602 -10.521591 -2.597377 139.999924
[Rope3_Seg06]
58 139.999893 -0.000119 -0.000060 0.449160 1.397927 2.213274 139.999893
59 139.999893 -0.000119 -0.000060 0.658604 -0.828890 0.803105 139.999893
[Rope3_Seg07]
58 139.999771 0.000060 -0.000119 1.157928 15.687449 5.450268 139.999771
59 139.999771 0.000060 -0.000119 0.183039 12.743187 5.189401 139.999771
[Rope3_Seg08]
58 139.999985 -0.000060 0.000000 2.533691 12.158429 4.237280 139.999985
59 139.999985 -0.000060 0.000000 1.290132 10.093197 4.292297 139.999985
[Rope3_Seg09]
58 90.185997 -0.000179 -0.000060 89.793228 -1.359877 -0.847183 90.185997
59 90.185997 -0.000179 -0.000060 89.793228 -1.359877 -0.847183 90.185997
[R_rear_hand01]
58 103.366196 -6.073594 -10.757982 -161.551193 16.666374 -30.088671 104.101845
59 103.366196 -6.073594 -10.757982 -161.551193 16.666374 -30.088671 104.101845
[R_rear_hand02]
58 100.509819 12.039542 -7.992327 -34.280552 19.289745 28.875523 101.543350
59 100.509819 12.039542 -7.992327 -34.280552 19.289745 28.875523 101.543350
[R_rear_hand03]
58 101.539970 5.215704 5.435467 83.366440 -30.933914 7.284830 101.819031
59 101.539970 5.215704 5.435467 83.366440 -30.933914 7.284830 101.819031
[Rope4_Seg01]
58 0.000000 0.000000 0.000000 43.646496 -24.965855 -91.569183 0.000000
59 0.000000 0.000000 0.000000 51.617863 -25.082441 -111.428139 0.000000
[Rope4_Seg02]
58 139.999985 0.000060 0.000119 1.433567 17.983727 -4.154329 139.999985
59 139.999985 0.000060 0.000119 -0.005423 23.894342 2.427114 139.999985
[Rope4_Seg03]
58 139.999924 0.000000 -0.000238 2.939236 12.606954 -2.018191 139.999924
59 139.999924 0.000000 -0.000238 2.186964 17.512533 2.520768 139.999924
[Rope4_Seg04]
58 139.999985 0.000000 0.000119 3.259899 9.912113 -0.788367 139.999985
59 139.999985 0.000000 0.000119 2.821268 13.242484 2.450943 139.999985
[Rope4_Seg05]
58 139.999802 -0.000060 -0.000119 1.229415 -0.061943 -1.913207 139.999802
59 139.999802 -0.000060 -0.000119 1.347999 2.098015 -0.765178 139.999802
[Rope4_Seg06]
58 139.999924 0.000000 0.000060 0.028077 -7.915445 -3.391699 139.999924
59 139.999924 0.000000 0.000060 0.590571 -4.738855 -2.983201 139.999924
[Rope4_Seg07]
58 139.999802 0.000000 0.000000 0.360466 -16.208296 -5.957027 139.999802
59 139.999802 0.000000 0.000000 0.755452 -13.241485 -6.487342 139.999802
[Rope4_Seg08]
58 139.999924 0.000000 0.000119 -1.113121 -9.509566 -4.328850 139.999924
59 139.999924 0.000000 0.000119 -0.988396 -8.298388 -4.753030 139.999924
[Rope4_Seg09]
58 90.185791 0.000060 0.000060 -135.617828 2.228885 0.850567 90.185791
59 90.185791 0.000060 0.000060 -135.617828 2.228885 0.850567 90.185791
[L_rear_hand01]
58 101.696655 -8.392275 -7.654577 -34.454281 -18.946800 151.655121 102.329041
59 101.696655 -8.392275 -7.654577 -34.454281 -18.946800 151.655121 102.329041
[L_rear_hand02]
58 102.726799 -1.568258 5.773216 83.407906 30.330435 172.796509 102.900848
59 102.726799 -1.568258 5.773216 83.407906 30.330435 172.796509 102.900848
[L_rear_hand03]
58 104.552910 9.721220 -10.420293 -161.379868 -16.473232 -150.512238 105.519653
59 104.552910 9.721220 -10.420293 -161.379868 -16.473232 -150.512238 105.519653
